<svg xmlns="http://www.w3.org/2000/svg" width="256" height="256" viewBox="0 0 256 256"><title>icon</title><rect width="256" height="256" style="fill:#63ebca"/><path d="M174.4455,169.0425h-19.73V88.3106H181.102q17.5486,0,24.8127,6.0518,9.4407,7.8687,9.44,21.4237,0,13.0718-8.4716,20.94-7.5069,7.0214-23.6032,7.02h-8.8342Zm0-62.4551v18.8815h8.35q12.83,0,12.8307-9.38,0-9.5005-13.6775-9.5015Z" style="fill:#fff"/><path d="M168.3245,122.4027a49.0825,49.0825,0,0,0-5.7188-15.6247,44.0094,44.0094,0,0,0-7.89-9.3971v24.9155Z" style="fill:#f5f5f5"/><path d="M154.7154,159.9722c6.6478-5.8355,11.5453-15.2564,13.6091-23.954H154.7154Z" style="fill:#f5f5f5"/><path d="M123.7066,151.0659c8.4363,0,16.2065-7.0711,20.4646-15.8247h20.2649c-2.2078,9.3046-7.6317,19.4928-15.003,25.17a40.6342,40.6342,0,0,1-25.49,8.5161A40.27,40.27,0,0,1,94.491,156.9808a39.5383,39.5383,0,0,1-12.0645-29.2155A39.207,39.207,0,0,1,94.3723,98.7864Q106.3185,86.96,123.7066,86.9575q22.9461,0,35.0107,19.0434a49.0839,49.0839,0,0,1,5.7188,15.6248l-20.2649-.1583c-1.5789-4.221-5.503-10.4913-8.9336-12.9543a20.3292,20.3292,0,0,0-26.6708,2.8953,23.3223,23.3223,0,0,0-6.0328,16.3569,23.7682,23.7682,0,0,0,6.0912,16.5953A19.5538,19.5538,0,0,0,123.7066,151.0659Z" style="fill:#fff"/><path d="M95.2929,121.159H82.9523a44.8541,44.8541,0,0,0-.5258,6.6507,42.8441,42.8441,0,0,0,1.627,11.9154H95.2929Z" style="fill:#f5f5f5"/><path d="M88.8471,105.5678h8.3456V96.2853c-.9619.8011-1.9063,1.64-2.82,2.5453A41.9361,41.9361,0,0,0,88.8471,105.5678Z" style="fill:#f5f5f5"/><path d="M60.3748,168.9672H40.6455v-82.01H93.3044v18.566h-32.93v15.5913h31.03v18.566h-31.03Z" style="fill:#fff"/></svg>